# Blender v2.90.1 OBJ File: 'Klammerheft.blend'
# www.blender.org
mtllib Klammerheft.mtl
o Cube_Cube.002
v -0.055002 -1.000000 0.650714
v -0.055002 -0.650714 1.000000
v -0.055002 -0.995700 0.705355
v -0.055002 -0.982905 0.758649
v -0.055002 -0.961930 0.809287
v -0.055002 -0.933292 0.856019
v -0.055002 -0.897697 0.897697
v -0.055002 -0.856019 0.933292
v -0.055002 -0.809287 0.961930
v -0.055002 -0.758649 0.982905
v -0.055002 -0.705355 0.995700
v -0.055002 1.706260 1.000000
v -0.055002 2.055546 0.650714
v -0.055002 1.760901 0.995700
v -0.055002 1.814196 0.982905
v -0.055002 1.864833 0.961930
v -0.055002 1.911566 0.933292
v -0.055002 1.953243 0.897697
v -0.055002 1.988839 0.856019
v -0.055002 2.017477 0.809287
v -0.055002 2.038451 0.758649
v -0.055002 2.051246 0.705355
v -0.055002 -0.650714 -1.000000
v -0.055002 -1.000000 -0.650714
v -0.055002 -0.705355 -0.995700
v -0.055002 -0.758649 -0.982905
v -0.055002 -0.809287 -0.961930
v -0.055002 -0.856019 -0.933292
v -0.055002 -0.897697 -0.897697
v -0.055002 -0.933292 -0.856019
v -0.055002 -0.961930 -0.809287
v -0.055002 -0.982905 -0.758649
v -0.055002 -0.995700 -0.705355
v -0.055002 2.055546 -0.650714
v -0.055002 1.706260 -1.000000
v -0.055002 2.051246 -0.705355
v -0.055002 2.038451 -0.758649
v -0.055002 2.017477 -0.809287
v -0.055002 1.988839 -0.856019
v -0.055002 1.953243 -0.897697
v -0.055002 1.911566 -0.933292
v -0.055002 1.864833 -0.961930
v -0.055002 1.814196 -0.982905
v -0.055002 1.760901 -0.995700
v 0.055002 -0.650714 1.000000
v 0.055002 -1.000000 0.650714
v 0.055002 -0.705355 0.995700
v 0.055002 -0.758649 0.982905
v 0.055002 -0.809287 0.961930
v 0.055002 -0.856019 0.933292
v 0.055002 -0.897697 0.897697
v 0.055002 -0.933292 0.856019
v 0.055002 -0.961930 0.809287
v 0.055002 -0.982905 0.758649
v 0.055002 -0.995700 0.705355
v 0.055002 2.055546 0.650714
v 0.055002 1.706260 1.000000
v 0.055002 2.051246 0.705355
v 0.055002 2.038451 0.758649
v 0.055002 2.017477 0.809287
v 0.055002 1.988839 0.856019
v 0.055002 1.953243 0.897697
v 0.055002 1.911566 0.933292
v 0.055002 1.864833 0.961930
v 0.055002 1.814196 0.982905
v 0.055002 1.760901 0.995700
v 0.055002 -1.000000 -0.650714
v 0.055002 -0.650714 -1.000000
v 0.055002 -0.995700 -0.705355
v 0.055002 -0.982905 -0.758649
v 0.055002 -0.961930 -0.809287
v 0.055002 -0.933292 -0.856019
v 0.055002 -0.897697 -0.897697
v 0.055002 -0.856019 -0.933292
v 0.055002 -0.809287 -0.961930
v 0.055002 -0.758649 -0.982905
v 0.055002 -0.705355 -0.995700
v 0.055002 1.706260 -1.000000
v 0.055002 2.055546 -0.650714
v 0.055002 1.760901 -0.995700
v 0.055002 1.814196 -0.982905
v 0.055002 1.864833 -0.961930
v 0.055002 1.911566 -0.933292
v 0.055002 1.953243 -0.897697
v 0.055002 1.988839 -0.856019
v 0.055002 2.017477 -0.809287
v 0.055002 2.038451 -0.758649
v 0.055002 2.051246 -0.705355
vt 0.418661 0.750000
vt 0.581339 0.750000
vt 0.581339 1.000000
vt 0.418661 1.000000
vt 0.375000 0.543661
vt 0.375538 0.536831
vt 0.377137 0.530169
vt 0.379759 0.523839
vt 0.383338 0.517998
vt 0.387788 0.512788
vt 0.392998 0.508338
vt 0.398839 0.504759
vt 0.405169 0.502137
vt 0.411831 0.500538
vt 0.418661 0.500000
vt 0.581339 0.500000
vt 0.588169 0.500538
vt 0.594831 0.502137
vt 0.601161 0.504759
vt 0.607002 0.508338
vt 0.612212 0.512788
vt 0.616662 0.517998
vt 0.620241 0.523839
vt 0.622863 0.530169
vt 0.624462 0.536831
vt 0.625000 0.543661
vt 0.625000 0.706339
vt 0.624462 0.713169
vt 0.622863 0.719831
vt 0.620241 0.726161
vt 0.616662 0.732002
vt 0.612212 0.737212
vt 0.607002 0.741661
vt 0.601161 0.745241
vt 0.594831 0.747863
vt 0.588169 0.749462
vt 0.411831 0.749462
vt 0.405169 0.747863
vt 0.398839 0.745241
vt 0.392998 0.741661
vt 0.387788 0.737212
vt 0.383338 0.732002
vt 0.379759 0.726161
vt 0.377137 0.719831
vt 0.375538 0.713169
vt 0.375000 0.706339
vt 0.875000 0.543661
vt 0.875000 0.706339
vt 0.375000 0.043661
vt 0.375538 0.036831
vt 0.377137 0.030169
vt 0.379759 0.023839
vt 0.383338 0.017998
vt 0.387788 0.012788
vt 0.392998 0.008338
vt 0.398839 0.004759
vt 0.405169 0.002137
vt 0.411831 0.000538
vt 0.418661 0.000000
vt 0.581339 0.000000
vt 0.588169 0.000538
vt 0.594831 0.002137
vt 0.601161 0.004759
vt 0.607002 0.008338
vt 0.612212 0.012788
vt 0.616662 0.017998
vt 0.620241 0.023839
vt 0.622863 0.030169
vt 0.624462 0.036831
vt 0.625000 0.043661
vt 0.625000 0.206339
vt 0.624462 0.213169
vt 0.622863 0.219831
vt 0.620241 0.226161
vt 0.616662 0.232002
vt 0.612212 0.237212
vt 0.607002 0.241662
vt 0.601161 0.245241
vt 0.594831 0.247863
vt 0.588169 0.249462
vt 0.581339 0.250000
vt 0.418661 0.250000
vt 0.411831 0.249462
vt 0.405169 0.247863
vt 0.398839 0.245241
vt 0.392998 0.241662
vt 0.387788 0.237212
vt 0.383338 0.232002
vt 0.379759 0.226161
vt 0.377137 0.219831
vt 0.375538 0.213169
vt 0.375000 0.206339
vt 0.125000 0.543661
vt 0.125000 0.536831
vt 0.375000 0.536831
vt 0.125000 0.530169
vt 0.375000 0.530169
vt 0.125000 0.523839
vt 0.375000 0.523839
vt 0.125000 0.517998
vt 0.375000 0.517998
vt 0.125000 0.500000
vt 0.375000 0.500000
vt 0.375000 0.250000
vt 0.392998 0.250000
vt 0.392998 0.500000
vt 0.398839 0.250000
vt 0.398839 0.500000
vt 0.405169 0.250000
vt 0.405169 0.500000
vt 0.411831 0.250000
vt 0.411831 0.500000
vt 0.625000 0.536831
vt 0.875000 0.536831
vt 0.625000 0.530169
vt 0.875000 0.530169
vt 0.625000 0.523839
vt 0.875000 0.523839
vt 0.625000 0.517998
vt 0.875000 0.517998
vt 0.625000 0.500000
vt 0.875000 0.500000
vt 0.625000 0.250000
vt 0.607002 0.500000
vt 0.607002 0.250000
vt 0.601161 0.500000
vt 0.601161 0.250000
vt 0.594831 0.500000
vt 0.594831 0.250000
vt 0.588169 0.500000
vt 0.588169 0.250000
vt 0.125000 0.706339
vt 0.375000 0.713169
vt 0.125000 0.713169
vt 0.375000 0.719831
vt 0.125000 0.719831
vt 0.375000 0.726161
vt 0.125000 0.726161
vt 0.375000 0.732002
vt 0.125000 0.732002
vt 0.375000 0.750000
vt 0.125000 0.750000
vt 0.375000 1.000000
vt 0.392998 0.750000
vt 0.392998 1.000000
vt 0.398839 0.750000
vt 0.398839 1.000000
vt 0.405169 0.750000
vt 0.405169 1.000000
vt 0.411831 0.750000
vt 0.411831 1.000000
vt 0.875000 0.713169
vt 0.625000 0.713169
vt 0.875000 0.719831
vt 0.625000 0.719831
vt 0.875000 0.726161
vt 0.625000 0.726161
vt 0.875000 0.732002
vt 0.625000 0.732002
vt 0.875000 0.750000
vt 0.625000 0.750000
vt 0.625000 1.000000
vt 0.607002 1.000000
vt 0.607002 0.750000
vt 0.601161 1.000000
vt 0.601161 0.750000
vt 0.594831 1.000000
vt 0.594831 0.750000
vt 0.588169 1.000000
vt 0.588169 0.750000
vn 0.0000 0.0000 1.0000
vn 1.0000 0.0000 0.0000
vn 0.0000 1.0000 0.0000
vn -1.0000 0.0000 0.0000
vn 0.0000 0.0000 -1.0000
vn 0.0000 -0.9969 -0.0785
vn 0.0000 -0.9724 -0.2334
vn 0.0000 -0.9239 -0.3827
vn 0.0000 -0.8526 -0.5225
vn 0.0000 -0.7604 -0.6494
vn 0.0000 -0.6494 -0.7604
vn 0.0000 -0.5225 -0.8526
vn 0.0000 -0.3827 -0.9239
vn 0.0000 -0.2334 -0.9724
vn 0.0000 -0.0785 -0.9969
vn 0.0000 0.9969 -0.0785
vn 0.0000 0.9724 -0.2335
vn 0.0000 0.9239 -0.3827
vn 0.0000 0.8526 -0.5225
vn 0.0000 0.7604 -0.6494
vn 0.0000 0.6494 -0.7604
vn 0.0000 0.5225 -0.8526
vn 0.0000 0.3827 -0.9239
vn 0.0000 0.2334 -0.9724
vn 0.0000 0.0785 -0.9969
vn 0.0000 -0.9969 0.0785
vn 0.0000 -0.9724 0.2334
vn 0.0000 -0.9239 0.3827
vn 0.0000 -0.8526 0.5225
vn 0.0000 -0.7604 0.6494
vn 0.0000 -0.6494 0.7604
vn 0.0000 -0.5225 0.8526
vn 0.0000 -0.3827 0.9239
vn 0.0000 -0.2334 0.9724
vn 0.0000 -0.0785 0.9969
vn 0.0000 0.9969 0.0785
vn 0.0000 0.9724 0.2335
vn 0.0000 0.9239 0.3827
vn 0.0000 0.8526 0.5225
vn 0.0000 0.7604 0.6494
vn 0.0000 0.6494 0.7604
vn 0.0000 0.5225 0.8526
vn 0.0000 0.3827 0.9239
vn 0.0000 0.2334 0.9724
vn 0.0000 0.0785 0.9969
vn 0.0000 -1.0000 0.0000
usemtl None
s off
f 45/1/1 57/2/1 12/3/1 2/4/1
f 67/5/2 69/6/2 70/7/2 71/8/2 72/9/2 73/10/2 74/11/2 75/12/2 76/13/2 77/14/2 68/15/2 78/16/2 80/17/2 81/18/2 82/19/2 83/20/2 84/21/2 85/22/2 86/23/2 87/24/2 88/25/2 79/26/2 56/27/2 58/28/2 59/29/2 60/30/2 61/31/2 62/32/2 63/33/2 64/34/2 65/35/2 66/36/2 57/2/2 45/1/2 47/37/2 48/38/2 49/39/2 50/40/2 51/41/2 52/42/2 53/43/2 54/44/2 55/45/2 46/46/2
f 79/26/3 34/47/3 13/48/3 56/27/3
f 1/49/4 3/50/4 4/51/4 5/52/4 6/53/4 7/54/4 8/55/4 9/56/4 10/57/4 11/58/4 2/59/4 12/60/4 14/61/4 15/62/4 16/63/4 17/64/4 18/65/4 19/66/4 20/67/4 21/68/4 22/69/4 13/70/4 34/71/4 36/72/4 37/73/4 38/74/4 39/75/4 40/76/4 41/77/4 42/78/4 43/79/4 44/80/4 35/81/4 23/82/4 25/83/4 26/84/4 27/85/4 28/86/4 29/87/4 30/88/4 31/89/4 32/90/4 33/91/4 24/92/4
f 23/82/5 35/81/5 78/16/5 68/15/5
f 67/5/6 24/93/6 33/94/6 69/95/6
f 69/95/7 33/94/7 32/96/7 70/97/7
f 70/97/8 32/96/8 31/98/8 71/99/8
f 71/99/9 31/98/9 30/100/9 72/101/9
f 72/101/10 30/100/10 29/102/10 73/103/10
f 73/103/11 29/104/11 28/105/11 74/106/11
f 74/106/12 28/105/12 27/107/12 75/108/12
f 75/108/13 27/107/13 26/109/13 76/110/13
f 76/110/14 26/109/14 25/111/14 77/112/14
f 77/112/15 25/111/15 23/82/15 68/15/15
f 34/47/16 79/26/16 88/113/16 36/114/16
f 36/114/17 88/113/17 87/115/17 37/116/17
f 37/116/18 87/115/18 86/117/18 38/118/18
f 38/118/19 86/117/19 85/119/19 39/120/19
f 39/120/20 85/119/20 84/121/20 40/122/20
f 40/123/21 84/121/21 83/124/21 41/125/21
f 41/125/22 83/124/22 82/126/22 42/127/22
f 42/127/23 82/126/23 81/128/23 43/129/23
f 43/129/24 81/128/24 80/130/24 44/131/24
f 44/131/25 80/130/25 78/16/25 35/81/25
f 1/132/26 46/46/26 55/133/26 3/134/26
f 3/134/27 55/133/27 54/135/27 4/136/27
f 4/136/28 54/135/28 53/137/28 5/138/28
f 5/138/29 53/137/29 52/139/29 6/140/29
f 6/140/30 52/139/30 51/141/30 7/142/30
f 7/143/31 51/141/31 50/144/31 8/145/31
f 8/145/32 50/144/32 49/146/32 9/147/32
f 9/147/33 49/146/33 48/148/33 10/149/33
f 10/149/34 48/148/34 47/150/34 11/151/34
f 11/151/35 47/150/35 45/1/35 2/4/35
f 56/27/36 13/48/36 22/152/36 58/153/36
f 58/153/37 22/152/37 21/154/37 59/155/37
f 59/155/38 21/154/38 20/156/38 60/157/38
f 60/157/39 20/156/39 19/158/39 61/159/39
f 61/159/40 19/158/40 18/160/40 62/161/40
f 62/161/41 18/162/41 17/163/41 63/164/41
f 63/164/42 17/163/42 16/165/42 64/166/42
f 64/166/43 16/165/43 15/167/43 65/168/43
f 65/168/44 15/167/44 14/169/44 66/170/44
f 66/170/45 14/169/45 12/3/45 57/2/45
f 24/93/46 67/5/46 46/46/46 1/132/46
o Cube.001_Cube.003
v 0.066710 1.538499 -0.959922
v 0.066710 2.039256 -0.469072
v 0.066710 1.574785 -0.996208
v 0.066710 1.493282 -1.001124
v -0.066710 1.538499 -0.959922
v -0.066710 2.039256 -0.469072
v -0.066710 1.574785 -0.996208
v 0.066710 1.571503 -1.000446
v 0.066710 2.018877 -0.476489
v -0.066710 2.018877 -0.476489
v 0.067100 2.056372 -0.471022
v 0.066132 2.056258 -0.522330
v -0.067259 2.057488 -0.519816
v -0.066292 2.057601 -0.468509
v 0.066193 2.053978 -0.522103
v 0.066710 1.892415 -0.666381
v 0.066710 2.036803 -0.497110
v 0.066353 2.041079 -0.528668
v 0.066497 2.015506 -0.548900
v 0.066612 1.979763 -0.580819
v 0.066685 1.937349 -0.621300
v -0.066710 1.892415 -0.666381
v -0.067229 2.056222 -0.519837
v -0.066710 2.036803 -0.497110
v -0.066736 1.937459 -0.621189
v -0.066809 1.980192 -0.580386
v -0.066924 2.016431 -0.547966
v -0.067068 2.042629 -0.527102
v -0.066710 1.571503 -1.000446
v -0.066710 1.493282 -1.001124
vt 0.375000 0.250000
vt 0.375000 0.500000
vt 0.551339 0.500000
vt 0.551339 0.250000
vt 0.625000 0.500000
vt 0.625000 0.500000
vt 0.625000 0.250000
vt 0.625000 0.250000
vt 0.625000 0.750000
vt 0.625000 0.750000
vt 0.625000 0.612882
vt 0.375000 0.750000
vt 0.375000 1.000000
vt 0.625000 1.000000
vt 0.375000 0.000000
vt 0.375000 0.000000
vt 0.375000 0.250000
vt 0.875000 0.750000
vt 0.875000 0.500000
vt 0.125000 0.500000
vt 0.125000 0.750000
vt 0.375000 0.750000
vt 0.375000 0.500000
vt 0.625000 0.137118
vt 0.625000 0.000000
vt 0.625000 1.000000
vt 0.625000 0.249986
vt 0.625000 0.249945
vt 0.625000 0.249881
vt 0.625000 0.249801
vt 0.625000 0.249712
vt 0.573715 0.500048
vt 0.593129 0.500185
vt 0.607680 0.500400
vt 0.615944 0.500671
vt 0.617111 0.500971
vt 0.625000 0.499986
vt 0.625000 0.499945
vt 0.592914 0.250185
vt 0.573660 0.250047
vt 0.625000 0.000000
vt 0.375000 1.000000
vn -0.0000 0.7203 -0.6937
vn -0.0186 -0.0584 -0.9981
vn -0.9999 0.0030 0.0119
vn 0.0000 -0.7000 0.7141
vn 1.0000 0.0000 0.0000
vn -1.0000 0.0000 -0.0000
vn 0.0092 1.0000 -0.0024
vn 0.0000 0.0087 -1.0000
vn 0.0096 0.0389 0.9992
vn 0.9998 0.0170 -0.0090
vn 0.9999 0.0132 -0.0095
vn 0.9999 0.0109 -0.0086
vn 0.9999 0.0082 -0.0067
vn 1.0000 0.0039 -0.0033
vn -1.0000 -0.0039 0.0033
vn -0.9999 -0.0081 0.0067
vn -0.9999 -0.0108 0.0085
vn -0.9999 -0.0130 0.0094
vn -0.9998 -0.0165 0.0087
vn -0.0061 0.4627 -0.8865
vn -0.0016 0.6217 -0.7832
vn -0.0004 0.6664 -0.7456
vn -0.0001 0.6905 -0.7233
vn -0.0000 0.7083 -0.7059
vn 0.9999 -0.0028 -0.0117
vn 0.0000 -0.6735 0.7392
vn 0.0000 0.7906 -0.6123
usemtl None
s off
f 91/171/47 95/172/47 110/173/47 104/174/47
f 111/175/48 101/176/48 100/177/48 103/178/48
f 94/179/49 102/180/49 101/176/49 111/175/49 112/181/49
f 93/182/50 89/183/50 90/184/50 94/179/50
f 89/185/51 92/186/51 96/187/51 91/171/51
f 95/172/52 93/182/52 94/179/52 112/181/52 110/173/52
f 101/176/53 102/180/53 99/188/53 100/189/53
f 96/190/54 92/191/54 118/192/54 117/193/54
f 89/185/51 91/171/51 104/174/51 105/194/51 90/195/51
f 90/184/55 99/196/55 102/180/55 94/179/55
f 103/178/56 105/194/56 106/197/56
f 106/197/57 105/194/57 107/198/57
f 107/198/58 105/194/58 108/199/58
f 108/199/59 105/194/59 109/200/59
f 109/200/60 105/194/60 104/201/60
f 110/173/61 112/181/61 113/202/61
f 113/202/62 112/181/62 114/203/62
f 114/203/63 112/181/63 115/204/63
f 115/204/64 112/181/64 116/205/64
f 116/205/65 112/181/65 111/206/65
f 103/178/66 106/197/66 116/207/66 111/175/66
f 106/197/67 107/198/67 115/208/67 116/207/67
f 107/198/68 108/209/68 114/203/68 115/208/68
f 108/209/69 109/210/69 113/202/69 114/203/69
f 109/210/70 104/174/70 110/173/70 113/202/70
f 103/178/71 100/177/71 99/211/71 90/195/71 105/194/71
f 95/172/52 117/193/52 118/192/52 93/182/52
f 93/182/72 118/192/72 92/212/72 89/183/72
f 91/171/73 96/187/73 117/193/73 95/172/73
l 98 94
l 90 97
